<?xml version="1.0" encoding="UTF-8" standalone="no"?> <svg width="64" height="64" viewBox="0 0 64 64" fill="none" xmlns="http://www.w3.org/2000/svg">
<path d="M61 60C61 60.2652 60.8946 60.5196 60.7071 60.7071C60.5196 60.8946 60.2652 61 60 61H50V53C50 52.7348 49.8946 52.4804 49.7071 52.2929C49.5196 52.1054 49.2652 52 49 52C48.7348 52 48.4804 52.1054 48.2929 52.2929C48.1054 52.4804 48 52.7348 48 53V61H16V53C16 52.7348 15.8946 52.4804 15.7071 52.2929C15.5196 52.1054 15.2652 52 15 52C14.7348 52 14.4804 52.1054 14.2929 52.2929C14.1054 52.4804 14 52.7348 14 53V61H4C3.73478 61 3.48043 60.8946 3.29289 60.7071C3.10536 60.5196 3 60.2652 3 60C2.99776 57.5043 3.48769 55.0326 4.44173 52.7264C5.39578 50.4202 6.79523 48.3247 8.55998 46.56C10.3247 44.7952 12.4202 43.3958 14.7264 42.4417C17.0326 41.4877 19.5043 40.9978 22 41H28C28.2652 41 28.5196 41.1054 28.7071 41.2929C28.8946 41.4804 29 41.7348 29 42V43C29 43.7956 29.3161 44.5587 29.8787 45.1213C30.4413 45.6839 31.2044 46 32 46C32.7956 46 33.5587 45.6839 34.1213 45.1213C34.6839 44.5587 35 43.7956 35 43V42C35 41.7348 35.1054 41.4804 35.2929 41.2929C35.4804 41.1054 35.7348 41 36 41H42C47.0377 41.0045 51.8678 43.0077 55.4301 46.5699C58.9923 50.1322 60.9955 54.9623 61 60V60Z" fill="#A73845"/>
<path d="M42 41H36C35.7348 41 35.4804 41.1054 35.2929 41.2929C35.1054 41.4804 35 41.7348 35 42V43C35 43.7956 34.6839 44.5587 34.1213 45.1213C33.5587 45.6839 32.7956 46 32 46C31.2044 46 30.4413 45.6839 29.8787 45.1213C29.3161 44.5587 29 43.7956 29 43V42C29 41.7348 28.8946 41.4804 28.7071 41.2929C28.5196 41.1054 28.2652 41 28 41H22C21.7348 41 21.4804 41.1054 21.2929 41.2929C21.1054 41.4804 21 41.7348 21 42V60C21 60.2652 21.1054 60.5196 21.2929 60.7071C21.4804 60.8946 21.7348 61 22 61H42C42.2652 61 42.5196 60.8946 42.7071 60.7071C42.8946 60.5196 43 60.2652 43 60V42C43 41.7348 42.8946 41.4804 42.7071 41.2929C42.5196 41.1054 42.2652 41 42 41Z" fill="#ACC172"/>
<path d="M36.545 34.322C36.4055 34.2313 36.2455 34.1768 36.0796 34.1636C35.9137 34.1503 35.7472 34.1786 35.595 34.246C34.461 34.7407 33.2372 34.996 32 34.996C30.7628 34.996 29.539 34.7407 28.405 34.246C28.2528 34.1786 28.0861 34.1502 27.9202 34.1635C27.7543 34.1768 27.5942 34.2313 27.4547 34.3221C27.3151 34.4129 27.2005 34.537 27.1211 34.6834C27.0417 34.8297 27.0001 34.9935 27 35.16V43C27 44.3261 27.5268 45.5979 28.4645 46.5355C29.4021 47.4732 30.6739 48 32 48C33.3261 48 34.5979 47.4732 35.5355 46.5355C36.4732 45.5979 37 44.3261 37 43V35.16C36.9999 34.9935 36.9583 34.8296 36.8788 34.6833C36.7994 34.5369 36.6846 34.4128 36.545 34.322Z" fill="#FFD4CF"/>
<path d="M42.131 17.139C41.3288 17.0266 40.5512 16.7799 39.831 16.409C37.4275 15.1129 34.7398 14.4337 32.0091 14.4321C29.2784 14.4305 26.59 15.1067 24.185 16.4C23.4601 16.775 22.6771 17.0249 21.869 17.139C21.6286 17.1708 21.408 17.2888 21.2481 17.4711C21.0883 17.6534 21.0001 17.8875 21 18.13V26C21.0003 28.1393 21.625 30.232 22.7974 32.0215C23.9697 33.8109 25.6388 35.2193 27.6 36.074C28.9877 36.6837 30.4868 36.9985 32.0025 36.9985C33.5182 36.9985 35.0173 36.6837 36.405 36.074C38.365 35.2183 40.0328 33.8094 41.2042 32.0201C42.3756 30.2308 42.9997 28.1387 43 26V18.13C42.9999 17.8875 42.9117 17.6534 42.7519 17.4711C42.592 17.2888 42.3714 17.1708 42.131 17.139Z" fill="#FFD4CF"/>
<path d="M47.591 14.677C47.3952 13.5395 46.9327 12.4645 46.2414 11.5402C45.5502 10.6158 44.6498 9.86837 43.614 9.359C40.3415 7.60027 36.7121 6.60829 33 6.458V4C33 3.73478 32.8946 3.48043 32.7071 3.29289C32.5196 3.10536 32.2652 3 32 3C31.7348 3 31.4804 3.10536 31.2929 3.29289C31.1054 3.48043 31 3.73478 31 4V6.458C27.2883 6.60785 23.6592 7.5995 20.387 9.358C19.2608 9.89407 18.2968 10.7189 17.5929 11.7486C16.8891 12.7783 16.4706 13.976 16.38 15.22C16.3636 15.7243 16.4555 16.2263 16.6496 16.692C16.8437 17.1578 17.1354 17.5765 17.505 17.92C18.1426 18.4442 18.8867 18.8231 19.6856 19.0303C20.4845 19.2376 21.319 19.2682 22.131 19.12C23.1717 18.9747 24.18 18.6534 25.113 18.17C27.232 17.0294 29.6013 16.4332 32.0078 16.435C34.4143 16.4367 36.7826 17.0364 38.9 18.18C39.8263 18.658 40.8267 18.9761 41.859 19.121C42.1927 19.1669 42.5292 19.1899 42.866 19.19C44.1939 19.2347 45.4903 18.7805 46.5 17.917C46.9312 17.5061 47.2559 16.9963 47.4459 16.4318C47.636 15.8673 47.6858 15.265 47.591 14.677V14.677Z" fill="#A73845"/>
<path d="M42 41H37V35.789C38.8051 34.8687 40.3207 33.4675 41.3795 31.7401C42.4383 30.0126 42.9991 28.0261 43 26V19.18C44.2813 19.1977 45.5252 18.7488 46.5 17.917C46.9319 17.5065 47.2573 16.9969 47.4481 16.4324C47.6389 15.8679 47.6893 15.2654 47.595 14.677C47.3992 13.5395 46.9367 12.4645 46.2454 11.5402C45.5542 10.6158 44.6538 9.86837 43.618 9.359C40.3443 7.59969 36.7135 6.60769 33 6.458V4C33 3.73478 32.8946 3.48043 32.7071 3.29289C32.5196 3.10536 32.2652 3 32 3C31.7348 3 31.4804 3.10536 31.2929 3.29289C31.1054 3.48043 31 3.73478 31 4V6.458C27.2883 6.60785 23.6592 7.5995 20.387 9.358C19.2608 9.89407 18.2968 10.7189 17.5929 11.7486C16.8891 12.7783 16.4706 13.976 16.38 15.22C16.3636 15.7243 16.4555 16.2263 16.6496 16.692C16.8437 17.1578 17.1354 17.5765 17.505 17.92C18.4806 18.7468 19.7212 19.1947 21 19.182V26C21.0006 28.0261 21.5613 30.0125 22.6201 31.7398C23.679 33.4672 25.1948 34.8682 27 35.788V41H22C19.5046 40.9989 17.0334 41.4897 14.7278 42.4441C12.4221 43.3986 10.3271 44.7981 8.56263 46.5626C6.7981 48.3271 5.39861 50.4221 4.44415 52.7278C3.48968 55.0334 2.99895 57.5046 3 60C3 60.2652 3.10536 60.5196 3.29289 60.7071C3.48043 60.8946 3.73478 61 4 61H60C60.2652 61 60.5196 60.8946 60.7071 60.7071C60.8946 60.5196 61 60.2652 61 60C60.9944 54.9626 58.9909 50.1331 55.4289 46.5711C51.8669 43.0091 47.0374 41.0056 42 41ZM29 42V36.584C29.081 36.607 29.166 36.615 29.247 36.636C29.5803 36.722 29.9157 36.7923 30.253 36.847C30.377 36.867 30.499 36.889 30.624 36.905C31.0802 36.9654 31.5398 36.9971 32 37C32.4617 36.9959 32.9226 36.9625 33.38 36.9C33.502 36.885 33.621 36.863 33.742 36.844C34.086 36.7893 34.4263 36.718 34.763 36.63C34.841 36.609 34.923 36.602 35 36.58V43C35 43.7956 34.6839 44.5587 34.1213 45.1213C33.5587 45.6839 32.7956 46 32 46C31.2044 46 30.4413 45.6839 29.8787 45.1213C29.3161 44.5587 29 43.7956 29 43V42ZM18.38 15.22C18.473 14.3388 18.7943 13.497 19.3122 12.778C19.8301 12.0589 20.5266 11.4874 21.333 11.12C24.5961 9.36268 28.2428 8.43864 31.949 8.43C31.967 8.43 31.982 8.44 32 8.44C32.018 8.44 32.033 8.431 32.051 8.43C35.7577 8.43885 39.4049 9.36359 42.668 11.122C43.4185 11.4797 44.0746 12.0083 44.5838 12.6654C45.093 13.3226 45.4411 14.09 45.6 14.906C45.6503 15.1746 45.6372 15.4512 45.5619 15.7138C45.4866 15.9765 45.351 16.2179 45.166 16.419L45.157 16.427C44.7333 16.7573 44.243 16.992 43.72 17.1149C43.197 17.2378 42.6535 17.2461 42.127 17.139C41.3248 17.0266 40.5472 16.7798 39.827 16.409C39.383 16.171 38.927 15.961 38.47 15.766C38.296 15.691 38.122 15.612 37.946 15.544C37.879 15.518 37.812 15.498 37.746 15.474C37.492 15.374 37.237 15.286 36.979 15.204L36.907 15.184C34.8123 14.5297 32.608 14.3003 30.4234 14.5091C28.2388 14.7179 26.1179 15.3608 24.185 16.4C23.4596 16.7753 22.6758 17.0252 21.867 17.139C21.3393 17.2382 20.7966 17.2257 20.274 17.1022C19.7514 16.9787 19.2605 16.747 18.833 16.422C18.6777 16.2644 18.5571 16.076 18.4791 15.869C18.4011 15.662 18.3673 15.4409 18.38 15.22ZM23 26V18.959C23.045 18.948 23.091 18.929 23.136 18.917C23.399 18.85 23.661 18.769 23.923 18.676C24.009 18.646 24.094 18.616 24.18 18.583C24.498 18.4621 24.8094 18.3245 25.113 18.171C27.232 17.0303 29.6011 16.4339 32.0076 16.4355C34.4141 16.437 36.7825 17.0365 38.9 18.18C39.2003 18.3315 39.5084 18.467 39.823 18.586C39.907 18.618 39.99 18.648 40.075 18.678C40.3417 18.772 40.6083 18.8533 40.875 18.922C40.916 18.932 40.956 18.949 40.997 18.959V26C40.9958 27.3371 40.6968 28.6572 40.1218 29.8644C39.5468 31.0716 38.7102 32.1355 37.6726 32.9791C36.6351 33.8226 35.4228 34.4244 34.1237 34.741C32.8245 35.0575 31.4712 35.0807 30.162 34.809C29.5553 34.6834 28.9636 34.4936 28.397 34.243C26.7928 33.5433 25.4277 32.3907 24.469 30.9265C23.5104 29.4623 22.9998 27.7501 23 26ZM9.976 47.978C12.9187 45.034 16.8439 43.279 21 43.049V59H16V53C16 52.7348 15.8946 52.4804 15.7071 52.2929C15.5196 52.1054 15.2652 52 15 52C14.7348 52 14.4804 52.1054 14.2929 52.2929C14.1054 52.4804 14 52.7348 14 53V59H5.029C5.26537 54.8424 7.02675 50.918 9.976 47.978ZM23 59V43H27C27 44.3261 27.5268 45.5979 28.4645 46.5355C29.4021 47.4732 30.6739 48 32 48C33.3261 48 34.5979 47.4732 35.5355 46.5355C36.4732 45.5979 37 44.3261 37 43H41V59H23ZM50 59V53C50 52.7348 49.8946 52.4804 49.7071 52.2929C49.5196 52.1054 49.2652 52 49 52C48.7348 52 48.4804 52.1054 48.2929 52.2929C48.1054 52.4804 48 52.7348 48 53V59H43V43.049C47.1518 43.2956 51.0695 45.0548 54.0123 47.9939C56.9551 50.9331 58.7192 54.8485 58.971 59H50Z" fill="#231F20"/>
</svg>
